<?xml version="1.0" standalone="no"?>
<!DOCTYPE svg PUBLIC "-//W3C//DTD SVG 20010904//EN"
 "http://www.w3.org/TR/2001/REC-SVG-20010904/DTD/svg10.dtd">
<svg version="1.0" xmlns="http://www.w3.org/2000/svg"
 width="350.000000pt" height="350.000000pt" viewBox="0 0 350.000000 350.000000"
 preserveAspectRatio="xMidYMid meet">
<metadata>
Created by potrace 1.14, written by Peter Selinger 2001-2017
</metadata>
<g transform="translate(0.000000,350.000000) scale(0.100000,-0.100000)"
fill="#000000" stroke="none">
<path d="M1576 2760 c-29 -10 -64 -24 -77 -34 -13 -9 -31 -16 -41 -16 -9 0
-29 -11 -44 -25 -31 -29 -37 -30 -58 -10 -13 13 -15 12 -15 -12 -2 -61 -3 -63
-24 -51 -17 8 -19 8 -14 -5 4 -11 1 -14 -7 -11 -7 3 -19 -3 -27 -13 -13 -16
-12 -17 4 -4 15 12 17 12 11 -3 -3 -9 -10 -16 -16 -16 -5 0 -7 -4 -4 -9 3 -5
-3 -19 -13 -32 -19 -25 -38 -84 -24 -76 4 3 7 -49 5 -116 -3 -108 5 -193 24
-265 6 -22 5 -23 -14 -11 -15 10 -24 10 -34 2 -15 -13 -15 -50 1 -143 23 -125
55 -200 86 -200 7 0 16 -17 20 -37 3 -21 17 -56 29 -79 21 -38 23 -52 20 -180
-3 -202 -15 -220 -187 -300 -37 -17 -75 -37 -85 -45 -9 -8 -33 -23 -52 -33
-19 -11 -71 -45 -116 -77 -44 -32 -105 -68 -135 -81 -69 -31 -195 -55 -300
-57 -31 -1 -39 -7 -75 -58 -42 -62 -54 -86 -108 -206 l-35 -77 1520 0 1520 0
-6 23 c-17 55 -68 167 -81 178 -8 6 -14 18 -14 25 0 8 -4 14 -9 14 -5 0 -14
13 -19 29 -17 48 -152 110 -272 125 -91 12 -115 20 -160 52 -25 18 -81 51
-125 74 -44 23 -87 47 -95 55 -23 20 -262 125 -285 125 -21 0 -75 70 -95 123
-12 33 -39 248 -41 327 -2 96 -1 102 20 95 31 -9 48 4 74 59 54 114 81 248 58
285 -8 12 -14 13 -36 3 -42 -19 -48 -14 -25 23 18 29 21 48 19 116 -1 45 -5
100 -10 123 -4 22 -10 59 -13 81 -8 47 -58 154 -92 195 -55 65 -217 162 -259
156 -11 -2 -24 -1 -30 2 -23 14 -187 8 -239 -8z"/>
</g>
</svg>
